<svg xmlns="http://www.w3.org/2000/svg" width="1280" height="328" viewBox="0 0 1280 328" role="img"><rect width="100%" height="100%" fill="#fbfdfd"/><rect x="32" y="28" width="1216" height="272" rx="28" fill="#e7f7f4"/><text x="70" y="66" font-family="Inter, Arial, sans-serif" font-size="26" font-weight="700" fill="#162123">Evidence Gap Map</text><text x="70" y="92" font-family="Inter, Arial, sans-serif" font-size="15" fill="#536366">What exists in the folder versus what is still missing</text><rect x="70" y="110" width="220" height="70" rx="18" fill="white" stroke="#d6e4e2" stroke-width="2"/><text x="88" y="142" font-family="Inter, Arial, sans-serif" font-size="20" font-weight="700" fill="#162123">Present</text><text x="88" y="166" font-family="Inter, Arial, sans-serif" font-size="14" fill="#536366">README, diagrams.md, local SVG assets</text><line x1="302" y1="145" x2="318" y2="145" stroke="#0f766e" stroke-width="4"/><polygon points="318,145 308,139 308,151" fill="#0f766e"/><rect x="320" y="110" width="220" height="70" rx="18" fill="white" stroke="#d6e4e2" stroke-width="2"/><text x="338" y="142" font-family="Inter, Arial, sans-serif" font-size="20" font-weight="700" fill="#162123">Missing</text><text x="338" y="166" font-family="Inter, Arial, sans-serif" font-size="14" fill="#536366">Source code, screenshots, raw datasets</text><line x1="552" y1="145" x2="568" y2="145" stroke="#0f766e" stroke-width="4"/><polygon points="568,145 558,139 558,151" fill="#0f766e"/><rect x="570" y="110" width="220" height="70" rx="18" fill="white" stroke="#d6e4e2" stroke-width="2"/><text x="588" y="142" font-family="Inter, Arial, sans-serif" font-size="20" font-weight="700" fill="#162123">Next Task</text><text x="588" y="166" font-family="Inter, Arial, sans-serif" font-size="14" fill="#536366">Replace inferred notes with checked-in artifac</text></svg>